<?xml version="1.0"?>
<svg id="Camada_1" xmlns="http://www.w3.org/2000/svg" version="1.1" viewBox="0 0 1080 302.3">
  
  <defs>
    
  </defs>
  <g id="LOGO">
    <g id="A_FORMULA">
      <path id="O" class="st0" fill="#ffffff" d="M332.2,176.1c-2.2-6.9-5.3-13-9.4-18-4.2-5.1-9.4-9.1-15.5-11.9-6-2.8-13-4.2-20.7-4.2s-13.5,1.4-19.5,4.1c-6,2.7-11.3,6.7-15.8,11.8-4.4,5-7.9,11.2-10.4,18.3-2.5,7.1-3.8,15-3.8,23.7s1.3,15.8,3.8,22.6c2.5,6.8,6,12.6,10.3,17.4,4.4,4.9,9.5,8.6,15.4,11.3,5.8,2.7,12.1,4,18.6,4s12.9-1.4,18.9-4.2c6-2.8,11.4-6.7,16-11.7,4.5-4.9,8.2-10.9,11-17.8,2.8-6.9,4.2-14.6,4.2-22.9s-1.1-15.7-3.2-22.5ZM322.2,199.8c-.1,6.7-1.3,12.7-3.5,17.9-2.2,5.2-5.1,9.7-8.6,13.3-3.5,3.6-7.4,6.4-11.7,8.3-4.3,1.9-8.7,2.8-13,2.8s-8.9-1-13.1-2.9c-4.2-1.9-7.9-4.7-11.1-8.3-3.3-3.7-5.9-8.2-8-13.4-2-5.1-3.1-11-3.1-17.5s1-12.7,2.8-18.2c1.9-5.4,4.5-10.2,7.7-14,3.2-3.8,7.1-6.8,11.5-9,4.4-2.1,9.3-3.1,14.6-3.1s10.7,1,15,3c4.3,2,8,4.8,11.1,8.4,3.1,3.6,5.4,8.1,7.1,13.3,1.7,5.4,2.5,11.4,2.5,18v1.6Z"></path>
      <path id="R" class="st0" fill="#ffffff" d="M365.2,253.9v-84.5c1-1.9,2.3-3.5,3.8-5,1.9-1.9,3.9-3.5,6-4.8,2-1.3,4.1-2.3,6.1-2.9,1.9-.6,3.5-.9,5-.9,1,0,2.1,0,2.9,0,2.2.3,4.7,1,4.7,1l2.2-13-1.3-.5s-3.7-1.3-8.1-1.2c-4.5.2-10.7,1.8-17.6,6-1.2.7-2.4,1.6-3.5,2.4v-7.3h-12.9v110.6h12.9Z"></path>
      <path id="M" class="st0" fill="#ffffff" d="M543.2,253.9v-81.5c0-2.9-.3-6-.8-9.2-.6-3.6-2-7-4-10-2.1-3.2-5.2-5.9-9.1-7.9-3.9-2.1-8.8-3-14.9-3s-7.7.6-11.4,1.6c-3.6,1-7.1,2.4-10.5,4.1-3.3,1.6-6.5,3.5-9.6,5.7l-1.6,1.1-.9-1.4c-1.8-2.7-4.2-4.9-6.9-6.6-2.7-1.7-5.7-2.8-8.9-3.5-2.9-.6-5.9-.9-8.8-.9s-3.5,0-5.1.2c-1.6.2-3.2.4-4.8.7-4.1.8-7.9,2-11.2,3.4-3.2,1.5-6.1,3-8.5,4.6l-.7.4v-8.7h-12.9v110.8h12.9v-85.5c1.3-1.3,2.8-2.6,4.4-3.8,2.1-1.5,4.8-3,7.9-4.6,2.9-1.5,6.5-2.8,10.7-3.7,2-.5,4.4-.7,7.1-.7s4.3.2,6.4.6c1.8.4,3.4,1,4.9,1.9,1.2.8,2.2,1.7,2.9,3,1.6,2.9,1.7,6.9,1.7,6.9v85.8h12.9v-85.1c1.6-1.4,3.3-2.8,5.2-4.1,2.6-1.8,5.3-3.4,8.1-4.8,2.7-1.4,5.6-2.5,8.5-3.4,2.7-.8,5.3-1.2,7.8-1.2,4,0,7.1.5,9.2,1.5,2,1,3.5,2.1,4.5,3.4,1,1.3,1.6,2.7,1.9,4.4.4,2.1.6,4.1.6,6v83.3h12.9Z"></path>
      <path id="U" class="st0" fill="#ffffff" d="M598.1,254.8s5.3,0,6.1-.3c5.1-.7,9.9-2,14.4-3.9,4.3-1.9,8.2-4.1,11.6-6.5,1.4-1,2.7-2,4-3v13h12.9v-111h-12.9v80.7c-.5.5-1.3,1.3-2.2,2.3-1.8,1.8-4.2,3.8-7.1,5.9-2.9,2.1-6.4,4.2-10.3,6-6.7,3.3-12.7,3.6-16.4,3.6-4.6.1-8.9-.6-11.7-1.9-2.8-1.2-4.9-2.7-6.2-4.3-1.4-1.7-2.3-3.3-2.7-4.9-.5-1.9-.8-3.4-.8-4.5v-82.8h-12.9v82.8c0,2.6.4,5.5,1.3,8.5.9,3.4,2.6,6.7,5.2,9.7,2.6,3.1,6.2,5.7,10.7,7.7,4.5,2,10.1,3,17.2,3Z"></path>
      <path id="A_ultimo" class="st0" fill="#ffffff" d="M779.2,240.1l-3.1.7-1.5.3h-1c-1.4.1-3.5-.5-3.6-7.2,0-6.8,0-13,.2-18.6.2-4.8.3-9.4.4-13.6v-1.5c0-3.4.1-5.4.1-6.1,0-3,0-6.3,0-9.9,0-3.7.1-7.1.1-10.4v-10.9c0-2.6-.5-5.2-1.4-7.8-1.1-2.9-2.7-5.2-4.7-6.9-2.5-2.3-6.1-4-11.1-5.1-4.3-1-9.8-1.4-16.1-1.4h-1.9c-3.6,0-7.2.3-10.7.8-3.5.5-6.8,1.2-10,2.1-3.2.9-6.2,1.9-8.9,3.1-1.5.7-3.7,1.8-6.6,3.3l-1.6.9,7,11.2,1.3-.7c.4-.2,9.7-4.7,14.4-5.7,5-1.1,10.4-1.6,16-1.6s9.7.3,13,.9c2.8.5,4.8,1.3,6.3,2.3,1.6,1.3,1.8,3.5,1.8,4.6,0,.2-.2,7.4-.2,11.2s0,6.3,0,9.8c0,1.6,0,3,0,4.5-4.2.2-8.4.4-12.5.8-5.4.5-10.1,1.2-14.4,2.4-4.2,1.2-8.3,2.5-12.1,4.4-3.9,1.9-7.6,4.1-10.9,6.8-3.4,2.8-6.2,5.9-8.6,9.5-2.5,3.8-4.7,9-4.6,15.9,0,6.9,3.3,14,8.6,18.9,5.2,4.8,11.6,7.3,18.9,7.3h1.7c7.6-.3,15.4-2,23-5,4.2-1.6,8.1-3.6,11.6-6,.5,1.6,1.2,3.2,2,4.5,1.8,3,5.6,6.7,13.4,6.7s1.6,0,2.5-.2c.8,0,1.6-.2,2.5-.4l1.7-.3,2.4-.5-3.2-12.9ZM756.8,227.4c-1.2,1.3-2.8,2.7-4.7,3.9-2.8,1.8-5.8,3.5-9.2,4.9-3.4,1.4-6.9,2.6-10.5,3.4-3.5,1-7.5,1.5-10.2,1.3-2.6-.2-3.9-.5-5.8-1.2-1.7-.6-3.4-1.6-4.8-2.8-1.3-1.1-2.3-2.4-3.1-4.2-.8-1.8-1.2-4-1.2-6.5s.9-5.6,2.6-7.9c2.2-2.8,4.6-5,7.3-6.8,3.9-2.6,7.9-4.3,11.8-5.7,9.3-3.2,19.9-4.1,24.1-4.5,1.3-.1,2.5-.2,3.7-.2l-.2,26.1Z"></path>
      <path id="A_primeiro" class="st0" fill="#ffffff" d="M101.4,254.5c.8,0,1.6,0,2.4-.2.8,0,1.6-.2,2.5-.4l1.7-.3,2.4-.5-3.1-12.9-3.2.7-1.5.3h-1c-1.4.1-3.5-.5-3.6-7.1,0-6.8,0-13,.2-18.6.1-4.8.2-9.4.3-13.6v-1.5c0-3.4.1-5.4.1-6.1,0-3,0-6.3,0-9.9,0-3.7.1-7.1.1-10.4v-10.9c0-2.6-.5-5.2-1.4-7.7-1.1-2.9-2.8-5.2-4.7-6.9-2.5-2.3-6.1-4-11.1-5.1-4.3-1-9.8-1.4-16.1-1.4h-1.9c-3.6,0-7.2.3-10.7.8-3.5.5-6.9,1.2-9.9,2.1-3.2.9-6.2,1.9-8.8,3.1-1.5.7-3.8,1.8-6.6,3.3l-1.6.9,7,11.2,1.3-.7c.4-.2,9.7-4.7,14.3-5.7,5-1.1,10.5-1.6,16-1.6s9.7.3,13,.9c2.8.5,4.8,1.3,6.3,2.3,1.7,1.3,1.8,3.5,1.8,4.6,0,.2-.2,7.4-.2,11.2s0,6.3,0,9.8c0,1.6,0,3,0,4.5-4.2.2-8.4.4-12.5.8-5.4.5-10.1,1.1-14.4,2.4-4.2,1.2-8.3,2.5-12.1,4.4-4,1.8-7.7,4.1-11,6.8-3.4,2.8-6.2,5.9-8.6,9.5-2.5,3.8-4.7,9-4.6,15.9,0,6.9,3.2,14,8.6,18.9,5.3,4.8,11.6,7.3,18.9,7.3h1.7c7.6-.3,15.4-2,23-5,4.2-1.6,8.1-3.6,11.6-6,.5,1.6,1.2,3.2,2,4.5,1.8,3,5.6,6.7,13.4,6.7M84.8,227.4c-1.2,1.3-2.8,2.7-4.7,3.9-2.7,1.8-5.8,3.5-9.2,4.9-3.4,1.4-6.9,2.6-10.5,3.4-3.5.9-7.6,1.5-10.2,1.3-2.6-.2-4-.5-5.8-1.2-1.8-.6-3.4-1.6-4.8-2.8-1.3-1.1-2.3-2.4-3.1-4.2-.8-1.8-1.2-4-1.2-6.5s.9-5.6,2.7-7.9c2.2-2.8,4.6-5.1,7.2-6.8,4-2.6,7.9-4.2,11.8-5.7,9.3-3.2,19.9-4.1,24.2-4.5,1.3,0,2.5-.1,3.7-.2v26.1Z"></path>
      <path id="F" class="st0" fill="#ffffff" d="M189.5,254v-100c.1,0,40.8,0,40.8,0v-13.6h-40.7v-28.5c0-3.7,0-7.4-.2-11.1,0,0-.3-3.2,1.9-4.8,1.4-1,3.4-1.8,6.2-2.3,3.3-.6,7.6-.9,13-.9s11,.5,16,1.6c4.6,1,13.9,5.5,14.4,5.7l1.3.6,7-11.1-1.6-.9s-4-2.2-6.6-3.3c-2.7-1.2-5.6-2.2-8.9-3.1-3.1-.9-6.4-1.5-9.9-2.1-3.6-.6-7.2-.8-10.7-.8h-2c-6.4,0-11.8.5-16.1,1.4-5,1.1-8.6,2.8-11,5-2.1,1.7-3.7,4.1-4.8,7-.9,2.6-1.4,5.2-1.4,7.7v39.6h-15.4v13.5h15.4s-.1,100-.1,100h13.3Z"></path>
      <rect id="L" class="st0" fill="#ffffff" x="667.5" y="79.8" width="12.9" height="174.1"></rect>
    </g>
    <g>
      <path id="p" class="st1" fill="#87d0ca" d="M901.7,172.6c-1.6-7.1-3.9-13.6-7-18.9-3.3-5.8-7.4-10.5-12.3-13.7-4.7-3.1-10.1-4.8-16.1-4.8-14.2,0-26.7,9.9-37.6,19.2-.8.7-9,7.7-9,25.8v107.2c0,3.1,2,4.7,4.9,4.7h13.2c2.8,0,4.2-1.6,4.2-4.8v-39.6l1.4,1c1.5,1,2.9,1.8,4.2,2.6,3.1,1.8,6,3,8.8,3.9,2.8.9,5.4,1.3,7.9,1.3,6.1,0,11.8-1.7,16.8-4.8,5.1-3.2,9.5-7.8,13.1-13.8,3.2-5.3,5.7-11.7,7.4-18.9,1.6-7,2.5-14.8,2.5-23.2s-.8-16-2.4-23.2ZM880.2,212.5c-1.1,5-2.7,9.5-4.8,13.1-1.7,3-3.6,5.4-5.7,7-1.9,1.5-3.9,2.3-6,2.3s-2-.3-3.3-.8c-1.4-.6-3.1-1.4-4.9-2.5-2-1.3-4.2-2.8-6.5-4.6-2.2-1.7-4.5-3.7-7-6v-46.1c0-4,2.3-6.5,2.7-6.9,1.5-1.3,3-2.5,4.3-3.6,2.4-1.8,4.6-3.3,6.6-4.5,2-1.1,3.8-2,5.4-2.5,1.5-.5,2.9-.8,4.2-.8,2,0,3.9.8,5.6,2.1,1.9,1.5,3.6,3.8,5.2,6.7,1.9,3.7,3.4,8.2,4.5,13.4,1,5.2,1.6,11.1,1.6,17.2s-.6,11.4-1.7,16.3Z"></path>
      <path id="e" class="st1" fill="#87d0ca" d="M996.9,163.8c-.1-1-.3-2-.5-3-.2-1-.5-2-.9-3-.3-1-.7-1.9-1.1-2.9-.4-.9-.9-1.9-1.4-2.8-.5-.9-1.1-1.8-1.7-2.6-.6-.8-1.2-1.6-1.9-2.4-.7-.8-1.4-1.5-2.2-2.2-.8-.7-1.5-1.3-2.3-1.9-.8-.6-1.6-1.2-2.4-1.7-.9-.5-1.7-1-2.5-1.4-.9-.4-1.8-.8-2.7-1.2-.9-.4-1.8-.7-2.8-.9-.9-.2-1.9-.5-2.8-.6-1-.2-2-.3-2.9-.4-1-.1-2-.1-3-.1h-.7s-1.1,0-1.1,0c-2.8.1-5.3.3-7.7.6-2.4.3-4.7.7-6.9,1.3-2.2.5-4.3,1.2-6.2,1.9-2,.7-3.8,1.5-5.7,2.4-1.8.9-3.6,1.9-5.3,2.9-1.7,1.1-3.4,2.2-5.2,3.4-1.7,1.2-12.7,10.7-12.7,25.7s0,4.1,0,4.1c-.1,4.6-.2,9.1-.3,13.7v5.8c-.1,1.9-.1,3.9-.1,5.8v4.8c-.2,6.9-.2,13.8-.2,20.8s0,.7,0,1.1c0,.4,0,.8,0,1.2,0,.4,0,.8.2,1.2,0,.4.1.8.2,1.2s.2.8.2,1.1c0,.4.2.8.3,1.2.1.4.2.8.4,1.2.1.4.2.7.4,1.1.1.4.3.8.5,1.3.2.4.3.8.6,1.2.2.4.4.8.6,1.1.2.4.5.8.7,1.1.3.4.5.8.8,1.1.3.3.6.7.8,1h0c.3.4.6.7.9,1,.4.3.7.6.9.9.4.4.8.7,1.2,1,.4.3.9.7,1.4,1,.5.3,1,.6,1.5.9.5.3,1,.5,1.6.8.5.3,1.1.5,1.6.7.6.2,1.2.4,1.8.6.6.2,1.3.4,1.9.5.6.2,1.2.3,2,.5.6.1,1.2.3,1.8.4.7.1,1.3.2,1.9.3.6,0,1.3.2,2,.3l2.1.2c.6,0,1.3,0,2.2.2.7,0,1.4,0,2.2.1.7,0,1.5,0,2.3,0h2.3s1.9,0,1.9,0h1.3s1.4,0,1.4,0h1.4c0,0,1.4-.2,1.4-.2h1.4c.6-.2,1.1-.2,1.7-.3h0c1.2-.1,2.5-.3,3.7-.5l2.7-.5,1.3-.3c1.3-.3,2.5-.6,3.8-.9l1.2-.3,1.3-.4,1.2-.4,2.4-.8,1.2-.4,1.1-.4,1.1-.5c.8-.4,1.6-.7,2.4-1.1,2-1.1,4.2-2,5.5-2.8.3-.2,5.7-2.8,3.2-7.2-2-3.6-5.2-8.3-7.2-11.4-2.1-3.1-4.8-1.9-6.1-1.2-.4.2-.8.4-1.2.6-1.2.6-9,4.3-12.7,5.1-.7.1-1.2.3-1.8.4-.6.1-1.2.2-1.7.3-.6,0-1.2.2-1.8.2-.6,0-1.2.2-1.8.2-.5,0-1.1.1-1.8.2-.7,0-1.3,0-1.9.1h-1.9c0,0-2,0-2,0h-3.6s-1.6-.1-1.6-.1h-1.6c0,0-1.4-.2-1.4-.2l-1.3-.2h-1.2c0-.1-1.1-.3-1.1-.3l-.8-.2-.8-.2-.6-.2-.6-.2-.4-.2-.4-.2c-.4-.2-.3,0-.4-.5,0-.3,0-.6,0-.9v-1.9c.1-2.6.2-6.6.2-8.6v-4.5s.1-4.8.1-4.8c2.6-.1,5.3-.3,7.9-.5l2-.2,1.9-.2,1.9-.2c.6,0,1.2-.2,1.9-.3.7,0,1.3-.2,1.9-.3.7-.1,1.3-.2,1.8-.4.6-.1,1.1-.3,1.8-.4.6-.1,1.2-.3,1.7-.5l1.6-.5,1.6-.5,1.6-.5c.6-.2,1.1-.4,1.6-.5.6-.2,1.1-.4,1.5-.6l1.6-.6,1.6-.7c.6-.2,1.1-.5,1.5-.7.5-.2,1-.5,1.6-.8.6-.3,1.1-.6,1.5-.8.4-.2,1-.5,1.5-.9.5-.3,1-.6,1.5-.9.4-.3.9-.6,1.4-.9.5-.3,1-.7,1.4-1,.5-.4,1-.7,1.4-1,.4-.3.9-.7,1.4-1.1h0c.5-.4.9-.8,1.3-1.2.4-.4.9-.8,1.2-1.1.4-.4.8-.8,1.3-1.2.4-.4.7-.8,1.2-1.3.4-.4.8-.9,1.1-1.3.4-.5.8-.9,1.1-1.3.3-.4.6-.8,1-1.4h0c.3-.5.7-1,1-1.4h0c.4-.7.7-1.2,1-1.8.4-.6.7-1.2,1-1.8.3-.6.6-1.3.9-2,.3-.7.6-1.4.8-2.2.3-.8.5-1.6.7-2.4.2-.8.3-1.6.5-2.5.1-.8.2-1.7.3-2.7,0-.9,0-1.8,0-2.8s0-2-.2-3ZM974.7,168.6c0,.3,0,.5,0,.8,0,.2,0,.4,0,.7,0,.2,0,.4-.1.6,0,.2-.1.4-.2.6,0,.2-.2.4-.2.6,0,.2-.2.4-.3.5,0,.2-.2.4-.3.5-.1.2-.3.4-.4.5l-.7.9-.7.8-.7.7c-.5.5-1,.9-1.5,1.4l-.8.7-.7.6-.9.6c-.5.3-.9.6-1.2.8l-1.2.7c-.4.2-.9.5-1.3.7l-1.3.6-1.3.6-1.3.6-1.3.5-1.3.5c-1.1.4-2.1.7-3.2,1-1.1.3-2.2.6-3.2.8-1.1.3-2.2.5-3.2.7-1.1.2-2.1.4-3.1.5-1.2.2-2.1.3-2.9.4-.8.1-1.7.2-2.6.3l-2.4.2v-15c0,0,.3-3.7,3.1-5.5.2-.2.5-.3.6-.4,0,0,.2-.1.3-.2,0,0,.2-.1.2-.1,0,0,.1,0,.2-.1l1-.6,1-.5,1-.6,1.1-.5,1.1-.5,1.1-.5,1.2-.5,1.2-.4,1.1-.4,1.2-.4,1.2-.4,1.2-.4,1.2-.3c.4-.1.8-.2,1.3-.3l1.1-.3,1.2-.2,1.2-.2,1.2-.2h1.1c0-.1,0-.1,0-.1h1c0,0,.9,0,.9,0,.2,0,.5,0,.7,0h.8c0,0,1.2.2,1.2.2h.5c0,.1.4.2.4.2h.4c.5.3.9.5,1.4.6l.5.2.4.2c.3.2.6.3.9.5l.4.3.4.3.3.3.2.2.2.2.2.3.4.6c.2.3.4.6.5.9l.2.6.2.4v.5c.1,0,.3.5.3.5v.6c.1,0,.2.6.2.6v.7s0,.7,0,.7Z"></path>
      <path id="t" class="st1" fill="#87d0ca" d="M1056.5,239.1s.6,2.7,1.3,7c.7,4.3-3.3,5.6-3.3,5.6l-2.7.8c-1.4.4-3,.9-4.5,1.2-1.5.3-2.9.6-4.3.9-1.4.2-2.8.4-4.3.6-1.4.1-2.7.2-4,.2-4,0-7.5-.5-10.7-1.6-3.2-1.1-6.1-2.9-8.4-5.5-2.3-2.4-4-5.4-5.1-9-1.1-3.5-1.7-7.7-1.7-12.5v-91.5h-14.5c-3,0-4.6-1.7-4.6-3.4v-14.2c0-2.3,1.4-3.8,4.8-3.8h14.3v-31.2c0-5.2,5.3-4.3,5.3-4.3l13.8.7s3.2-.2,3.2,3.6v31.2h22.3c2,0,4.2,1.7,4.2,3.9v13.5c0,2.5-1.8,4-4.2,4h-22.3v90.2c0,2.2.2,4,.3,5.4.3,2.4,3.6,3,5,3,2.9,0,5.8-.5,9.7-1.1,1.3-.1,2.7-.4,4.1-.6,1.6-.3,4.9-.7,5.7,3.2.8,3.9.7,3.6.7,3.6Z"></path>
    </g>
    <g id="Pata">
      <path class="st1" fill="#87d0ca" d="M360.1,64.6h0c-1.8-13.9-31.7-1.3-47.1-6.4-1.4-.5-4.6-1.8-7.2-1-24.7,7.8-40.7,41-25.4,68h0c-3.6-32.1,34.9-53.6,61.6-49.2,0,0,5.2,41.7-35.8,51.2,60.9-4.5,54.2-60.6,53.9-62.5Z"></path>
      <path class="st1" fill="#87d0ca" d="M333.5,21.2c-9.4-2.4-14.7,3.8-15,4.2-2.8,4.5-4.2,9.8-4.3,14.3-.2,9.5,8.5,13.1,16.9,10,8.3-3.1,10.7-9.4,9.9-15.3-.2-1.5-.1-3.2,0-4.8h0c.5-3.7-1.5-7-7.5-8.5Z"></path>
      <path class="st1" fill="#87d0ca" d="M373.4,38.7c2.1-2.8,3.4-5.7,4.6-8.7,2.1-6.3,3.6-11.9-2.6-16.3-9.4-6.6-16.6-2.1-18.5-.6-6.4,5.2-11.5,11.8-12.2,17.5-.7,6.6,4.8,12.3,9.1,13.9,4.3,1.6,13.3,2.7,19.5-5.7Z"></path>
      <path class="st1" fill="#87d0ca" d="M400.6,37.6c-7.3-7.3-15.1-3.2-15.1-3.2h0c-4.5,2.4-8.7,4.5-12.6,8.6-5.5,5.9-6.2,13.9-1.2,19.5,4.3,4.8,11.9,6.1,18.3,2.7,2.9-1.5,7.6-5.6,11.3-10.8,2.7-4.4,4.2-12-.7-16.8Z"></path>
      <path class="st1" fill="#87d0ca" d="M392.7,92.9c2.9-2.7,5.2-6.6,4.4-12.4-1.2-8.8-9-8.8-10.8-8.7-.1,0-.2,0-.4,0h0c-1.4.1-3.1.2-4.8.2-5.5-.2-12.2,3.5-14.4,9.7-2.2,6.4.5,17.1,9.2,17.8,3.7.3,7.5-.7,11-2.5.8-.5,1.8-1,2.8-1.7,1-.7,2-1.5,3-2.3Z"></path>
    </g>
  </g>
</svg>