<?xml version="1.0" encoding="UTF-8"?>
<svg id="Layer_1" data-name="Layer 1" xmlns="http://www.w3.org/2000/svg" viewBox="0 0 331.44 114.72">
  <defs>
    <style>
      .cls-1 {
        fill: #fff;
      }

      .cls-2 {
        fill: #89d1cb;
      }
    </style>
  </defs>
  <path class="cls-1" d="M91.93,87.51c1.88,0,3.73-.41,5.49-1.22,1.74-.81,3.3-1.94,4.62-3.38,1.32-1.43,2.38-3.17,3.18-5.16.8-2.01,1.21-4.24,1.21-6.64s-.31-4.54-.91-6.51c-.62-2-1.54-3.76-2.73-5.21-1.21-1.47-2.72-2.63-4.49-3.44-1.75-.82-3.77-1.23-5.99-1.23-2,0-3.9.4-5.64,1.19-1.74.79-3.28,1.94-4.56,3.42-1.28,1.45-2.29,3.25-3.02,5.31-.73,2.05-1.09,4.35-1.09,6.85s.37,4.59,1.1,6.54c.73,1.96,1.73,3.65,3,5.05,1.26,1.41,2.76,2.51,4.46,3.27,1.69.77,3.51,1.16,5.39,1.16M92.3,58.65c1.63,0,3.09.29,4.34.86,1.25.57,2.33,1.38,3.21,2.42.89,1.05,1.58,2.35,2.05,3.85.49,1.57.74,3.32.74,5.2v.47c-.04,1.93-.38,3.67-1.02,5.17-.65,1.51-1.49,2.81-2.5,3.86-1.01,1.05-2.15,1.85-3.4,2.39-1.24.54-2.51.82-3.78.82s-2.57-.28-3.8-.84c-1.21-.56-2.3-1.37-3.21-2.41-.95-1.07-1.72-2.38-2.31-3.89-.58-1.47-.89-3.19-.89-5.08s.28-3.69.82-5.28c.54-1.57,1.29-2.94,2.22-4.05.92-1.1,2.05-1.97,3.32-2.59,1.27-.61,2.7-.91,4.23-.91ZM115.08,87.13v-24.46c.3-.55.67-1.03,1.1-1.44.55-.55,1.14-1.02,1.74-1.4.58-.37,1.18-.65,1.76-.84.54-.18,1.02-.26,1.44-.27.3-.01.6,0,.83.02.62.08,1.36.29,1.36.29l.63-3.76-.39-.13s-1.06-.39-2.36-.34c-1.29.06-3.09.51-5.11,1.73-.35.22-.69.45-1.02.7v-2.12h-3.74v32.03h3.74ZM166.64,87.13v-23.61c0-.85-.08-1.74-.24-2.66-.19-1.04-.57-2.02-1.16-2.9-.61-.93-1.49-1.7-2.63-2.29-1.13-.6-2.54-.88-4.32-.88-1.1,0-2.22.16-3.3.48-1.05.3-2.07.69-3.04,1.18-.95.48-1.88,1.03-2.77,1.65l-.46.33-.26-.4c-.54-.77-1.2-1.41-1.99-1.9-.77-.48-1.64-.82-2.56-1.01-.84-.17-1.7-.25-2.55-.25-.52,0-1.03.02-1.48.07-.47.05-.93.11-1.38.21-1.2.23-2.29.57-3.24.99-.94.42-1.77.86-2.47,1.32l-.2.12v-2.53h-3.74v32.1h3.74v-24.77c.39-.38.82-.75,1.28-1.09.61-.42,1.38-.88,2.28-1.35.85-.44,1.88-.8,3.09-1.07.57-.14,1.27-.21,2.06-.21.63,0,1.26.06,1.85.19.51.11.99.29,1.41.56.35.22.63.5.84.88.48.84.5,2,.5,2v24.87h3.73v-24.65c.46-.4.97-.8,1.51-1.19.74-.52,1.53-.99,2.34-1.38.79-.4,1.63-.73,2.48-.98.78-.23,1.54-.34,2.26-.34,1.16,0,2.05.15,2.66.44.58.28,1.02.62,1.3.99.28.39.46.8.54,1.26.11.61.16,1.2.16,1.74v24.12h3.74ZM182.55,87.38s1.54-.03,1.76-.07c1.48-.19,2.88-.57,4.17-1.13,1.25-.54,2.38-1.18,3.37-1.88.41-.28.79-.57,1.16-.87v3.76h3.74v-32.16h-3.74v23.37c-.15.16-.36.37-.64.67-.51.52-1.22,1.1-2.07,1.72-.84.61-1.86,1.2-2.99,1.75-1.94.97-3.67,1.04-4.75,1.05-1.33.04-2.57-.18-3.4-.56-.8-.35-1.41-.78-1.81-1.26-.41-.49-.67-.97-.8-1.43-.15-.56-.22-.99-.22-1.31v-23.99h-3.74v23.99c0,.75.12,1.58.37,2.47.27.98.77,1.93,1.51,2.81.75.89,1.79,1.64,3.11,2.22,1.31.58,2.94.86,4.98.86ZM233.31,87.29c.24,0,.47-.02.71-.05.22-.02.47-.06.72-.11l.49-.1.7-.15-.91-3.75-.91.19-.45.08-.29.02c-.41.02-1.01-.16-1.05-2.09,0-1.96.02-3.77.05-5.39.05-1.4.08-2.72.1-3.95v-.42c.02-.98.03-1.57.03-1.76,0-.87.01-1.83.02-2.88.03-1.06.04-2.06.04-3.01v-3.17c0-.75-.14-1.5-.41-2.24-.31-.84-.79-1.5-1.36-2.01-.72-.67-1.77-1.15-3.21-1.47-1.26-.28-2.83-.42-4.67-.42h-.56c-1.03,0-2.08.08-3.11.24-1.01.15-1.98.36-2.89.61-.94.26-1.8.56-2.57.91-.42.19-1.09.52-1.9.96l-.45.25,2.03,3.23.39-.2c.11-.05,2.82-1.37,4.16-1.67,1.46-.32,3.02-.46,4.64-.46s2.82.08,3.76.26c.8.15,1.39.37,1.82.67.48.39.52,1.01.52,1.35,0,.05-.06,2.14-.06,3.23,0,.87-.01,1.82-.03,2.84-.01.45-.02.88-.02,1.3-1.21.05-2.43.12-3.63.23-1.56.14-2.93.33-4.18.68-1.21.34-2.4.73-3.52,1.27-1.14.54-2.21,1.2-3.17,1.98-.97.8-1.81,1.72-2.48,2.74-.72,1.1-1.36,2.61-1.33,4.61.02,1.99.95,4.07,2.5,5.48,1.52,1.39,3.36,2.1,5.47,2.1h.5c2.21-.09,4.45-.58,6.67-1.44,1.21-.47,2.35-1.06,3.37-1.74.14.47.34.91.58,1.31.53.88,1.63,1.93,3.88,1.93ZM228.52,79.46c-.35.39-.81.77-1.36,1.13-.8.53-1.69,1-2.65,1.41-.98.41-2.01.74-3.04.99-1,.27-2.19.43-2.95.37-.76-.05-1.15-.15-1.68-.35-.5-.18-.98-.46-1.39-.8-.37-.31-.65-.71-.88-1.22-.24-.52-.36-1.15-.36-1.88,0-.89.25-1.63.77-2.29.64-.81,1.34-1.46,2.11-1.96,1.14-.76,2.29-1.23,3.43-1.64,2.69-.93,5.78-1.2,7-1.29.38-.03.74-.04,1.07-.05l-.05,7.57Z"/>
  <path class="cls-1" d="M38.65,87.29c.23,0,.47-.02.7-.05.23-.02.47-.06.73-.11l.49-.1.71-.15-.91-3.75-.91.19-.45.08-.3.02c-.4.02-1-.16-1.05-2.09,0-1.96.02-3.77.06-5.39.04-1.4.07-2.72.09-3.95v-.42c.02-.98.03-1.57.03-1.76,0-.87,0-1.83.02-2.88.03-1.06.04-2.06.04-3.01v-3.17c0-.75-.14-1.5-.41-2.24-.31-.84-.8-1.5-1.36-2.01-.72-.67-1.77-1.15-3.21-1.47-1.25-.28-2.83-.42-4.66-.42h-.56c-1.03,0-2.08.08-3.11.24-1.02.15-1.99.36-2.88.61-.94.26-1.8.56-2.56.91-.43.19-1.09.52-1.9.96l-.46.25,2.03,3.23.39-.2c.12-.05,2.81-1.37,4.15-1.67,1.46-.32,3.03-.46,4.64-.46s2.82.08,3.76.26c.81.15,1.4.37,1.81.67.49.39.52,1.01.52,1.35.01.05-.06,2.14-.06,3.23,0,.87-.01,1.82-.03,2.84-.01.45-.02.88-.02,1.3-1.21.05-2.43.12-3.63.23-1.55.14-2.92.33-4.18.68-1.21.34-2.39.73-3.52,1.27-1.15.54-2.22,1.2-3.17,1.98-.97.8-1.8,1.72-2.48,2.74-.72,1.1-1.36,2.61-1.32,4.61.02,1.99.94,4.07,2.49,5.48,1.53,1.39,3.37,2.1,5.47,2.1h.49c2.21-.09,4.45-.58,6.68-1.44,1.21-.47,2.35-1.06,3.37-1.74.15.47.35.91.58,1.31.53.88,1.63,1.93,3.88,1.93M33.86,79.46c-.35.39-.82.77-1.36,1.13-.79.53-1.68,1-2.66,1.41-.98.41-2,.74-3.03.99-1.01.27-2.19.43-2.96.37-.76-.05-1.15-.15-1.68-.35-.51-.18-.98-.46-1.39-.8-.37-.31-.66-.71-.89-1.22-.23-.52-.35-1.15-.35-1.88,0-.89.26-1.63.77-2.29.63-.81,1.34-1.46,2.1-1.96,1.15-.76,2.3-1.23,3.43-1.64,2.7-.93,5.77-1.2,7-1.29.38-.03.73-.04,1.06-.05l-.04,7.57Z"/>
  <path class="cls-1" d="M64.2,87.16l.04-28.97h11.79v-3.93h-11.8v-8.25c0-1.06-.03-2.14-.07-3.2,0,0-.09-.94.54-1.38.4-.3.99-.51,1.8-.66.95-.18,2.21-.26,3.76-.26s3.18.15,4.65.47c1.34.29,4.04,1.61,4.16,1.67l.38.18,2.04-3.22-.46-.25s-1.15-.63-1.9-.96c-.77-.35-1.64-.65-2.56-.91-.89-.25-1.86-.45-2.88-.61-1.03-.16-2.07-.24-3.1-.24h-.57c-1.85,0-3.42.14-4.66.42-1.45.32-2.49.8-3.19,1.45-.6.49-1.08,1.19-1.38,2.03-.27.75-.41,1.5-.41,2.24v11.48h-4.45v3.92h4.45s-.04,28.97-.04,28.97h3.87Z"/>
  <rect class="cls-1" x="202.65" y="36.68" width="3.74" height="50.44"/>
  <path class="cls-2" d="M268.48,58.1c.89,1.55,1.57,3.41,2.02,5.48.46,2.06.7,4.33.7,6.71s-.26,4.72-.73,6.73c-.5,2.11-1.23,3.95-2.15,5.49-1.04,1.72-2.32,3.07-3.79,3.99-1.46.92-3.1,1.4-4.87,1.4-.71,0-1.48-.12-2.29-.37-.8-.24-1.64-.61-2.54-1.12-.39-.22-.8-.47-1.22-.75l-.41-.29v11.46c0,.91-.42,1.38-1.22,1.38h-3.81c-.84,0-1.41-.45-1.41-1.36v-31.06c0-5.25,2.36-7.28,2.6-7.48,3.16-2.7,6.78-5.56,10.91-5.56,1.74,0,3.3.49,4.66,1.38,1.42.93,2.61,2.29,3.57,3.98M280.52,63.64l-.02,4.34.71-.07c.25-.03.51-.06.75-.09.22-.03.49-.06.83-.12h0c.28-.04.57-.09.89-.15.3-.06.61-.12.93-.2.32-.07.63-.15.94-.24.29-.08.6-.18.91-.29l.39-.14.38-.15.39-.16.39-.18.38-.18c.12-.06.24-.12.37-.19l.36-.21c.1-.06.22-.13.35-.22l.25-.17.21-.17.23-.19c.15-.13.28-.25.43-.39l.21-.21.2-.23.2-.25s.07-.09.11-.15c.03-.05.07-.1.09-.15.03-.05.05-.1.07-.15.02-.05.04-.11.07-.16,0-.04.02-.1.04-.17.01-.06.02-.12.03-.18.01-.07.01-.13.02-.19,0-.06,0-.13,0-.22v-.39s-.03-.18-.03-.18l-.03-.16-.03-.15-.04-.13-.04-.12-.06-.17c-.05-.1-.1-.18-.15-.27l-.12-.16-.06-.07-.07-.06-.07-.06-.1-.08-.11-.08-.12-.08c-.08-.05-.16-.1-.25-.14l-.11-.06-.13-.06c-.14-.05-.28-.1-.41-.15l-.13-.03-.13-.03-.15-.03-.33-.04-.24-.02c-.07,0-.14,0-.2,0h-.25s-.28.03-.28.03h0s-.32.03-.32.03l-.33.05-.34.06-.34.07-.33.08c-.12.02-.24.06-.37.09l-.34.1-.35.1-.35.11-.35.12-.33.12-.34.13-.34.14-.32.13-.31.14-.31.15-.3.16-.29.16-.28.16c-.07.04-.16.1-.27.17,0,0,.71-.45-.1.06-.81.51-.88,1.59-.88,1.59ZM277.75,56.85c.51-.35,1.01-.68,1.51-.99.51-.31,1.02-.59,1.55-.85.55-.27,1.1-.5,1.66-.71.57-.21,1.17-.39,1.81-.54.63-.15,1.29-.27,1.99-.36.7-.09,1.44-.15,2.24-.19h.32s.02-.01.02-.01h.19c.29,0,.58.01.87.04.27.02.56.06.85.12.28.05.56.11.82.18.27.08.54.16.81.27.27.1.53.21.77.34.24.12.49.26.74.41.23.15.47.31.7.49.21.17.44.35.66.55.22.2.43.41.63.63.2.23.39.46.56.69.17.24.34.49.49.75.15.26.29.53.41.8.13.28.24.56.33.84.1.28.18.57.25.86.07.29.12.58.15.87.03.28.06.57.06.87s0,.55-.02.81c-.01.28-.04.54-.08.78-.04.24-.08.48-.13.71-.06.23-.12.46-.2.7-.07.22-.15.43-.23.63-.08.22-.17.41-.26.58-.08.17-.18.35-.28.53-.09.16-.19.32-.29.47l-.02.04c-.09.13-.19.27-.28.41h0c-.11.16-.21.29-.29.4-.09.12-.2.25-.32.39-.1.13-.21.26-.33.38-.13.13-.24.26-.34.37-.13.13-.24.24-.37.35-.1.1-.22.21-.35.33-.13.11-.25.22-.38.32l-.02.02c-.14.11-.27.21-.39.31-.12.1-.26.19-.4.29-.13.09-.27.19-.41.28-.15.1-.29.19-.42.27-.13.08-.27.17-.42.26-.16.1-.32.18-.44.25-.12.06-.27.14-.44.22-.17.09-.32.16-.45.22-.13.06-.27.13-.44.2l-.46.19-.46.18c-.12.05-.27.1-.45.16-.14.05-.29.1-.45.16l-.46.14-.46.14-.46.13c-.16.05-.33.09-.5.13-.18.04-.34.08-.51.12-.15.03-.32.06-.51.1-.17.03-.35.06-.54.09-.19.03-.37.06-.54.08l-.55.07-.55.06-.59.06c-.76.07-1.53.12-2.28.16l-.03,1.4v1.3c0,.58-.03,1.74-.05,2.49v.54c-.01.08-.01.17,0,.26.01.11,0,.08.11.13l.11.05.13.05.16.06.18.05.22.05.22.04.3.05.35.04.39.04.4.03.45.03.46.02h.5s.55.01.55.01h.57s.55-.02.55-.02c.16,0,.34-.02.54-.03.2-.01.38-.03.53-.04.18-.02.35-.04.52-.06.16-.02.34-.04.51-.07.14-.02.3-.05.48-.09.15-.02.31-.06.51-.1,1.07-.23,3.33-1.32,3.67-1.49.11-.05.22-.11.34-.17.39-.2,1.18-.55,1.77.35.58.91,1.5,2.26,2.08,3.31.71,1.29-.85,2.04-.94,2.09-.39.24-1.02.5-1.6.82-.22.12-.46.21-.69.32l-.32.13-.32.12-.34.12-.69.23-.35.11-.38.11-.34.09c-.37.09-.73.17-1.09.25l-.38.08-.78.14c-.35.06-.71.12-1.07.17h0c-.16.01-.33.02-.49.04l-.4.04-.4.02-.41.02h-.41s-.39.02-.39.02h-1.21c-.23-.02-.46-.02-.67-.03-.23,0-.44-.02-.63-.03-.24-.02-.45-.03-.63-.05l-.6-.06c-.2-.02-.39-.05-.56-.08-.17-.03-.34-.05-.55-.09-.17-.03-.35-.07-.51-.1-.22-.05-.41-.09-.57-.14-.17-.04-.35-.1-.54-.16-.17-.05-.34-.11-.51-.18-.16-.06-.32-.13-.48-.2-.16-.07-.31-.15-.46-.23-.15-.08-.3-.17-.43-.26-.14-.09-.28-.19-.4-.28-.12-.09-.23-.19-.36-.3-.08-.08-.17-.17-.27-.26-.08-.09-.17-.18-.26-.28h0c-.08-.1-.16-.2-.24-.3-.07-.09-.14-.19-.22-.31-.07-.1-.14-.21-.2-.32-.06-.1-.13-.21-.18-.33-.06-.11-.12-.23-.16-.34-.05-.13-.11-.25-.14-.36-.03-.1-.07-.2-.11-.31-.04-.1-.07-.22-.1-.34-.03-.12-.06-.23-.08-.33-.02-.1-.05-.21-.07-.33-.02-.12-.04-.23-.06-.34-.02-.1-.02-.21-.04-.34,0-.12-.01-.24-.02-.34,0-.13,0-.24,0-.32,0-2.01,0-4.01.03-6.01l.02-1.4c0-.57.01-1.12.02-1.68l.02-1.68c.03-1.32.06-2.64.09-3.97,0,0,.02,3.15.02-1.19s3.19-7.09,3.69-7.44ZM315.34,82.84s.18.79.38,2.03c.21,1.23-.96,1.62-.96,1.62l-.8.25c-.42.13-.86.25-1.3.35-.42.1-.83.18-1.23.25-.4.07-.82.12-1.25.16-.41.03-.8.06-1.17.06-1.15,0-2.18-.14-3.11-.47-.93-.33-1.75-.84-2.44-1.58-.66-.7-1.15-1.56-1.47-2.6-.32-1.02-.48-2.22-.48-3.63v-26.5h-4.21c-.88,0-1.32-.49-1.32-.99v-4.11c0-.67.4-1.1,1.39-1.1h4.14v-9.05c0-1.5,1.54-1.24,1.54-1.24l3.99.2s.91-.07.91,1.05v9.04h6.46c.58,0,1.21.5,1.21,1.12v3.92c0,.73-.52,1.16-1.21,1.16h-6.46v26.14c0,.65.05,1.17.09,1.56.08.68,1.03.87,1.44.87.84,0,1.67-.13,2.82-.32.39-.04.79-.11,1.19-.17.48-.08,1.42-.2,1.64.94.22,1.13.2,1.05.2,1.05ZM262.88,78.95c.6-1.06,1.07-2.34,1.39-3.8.31-1.42.48-3.02.48-4.73s-.15-3.48-.45-5c-.3-1.49-.73-2.81-1.29-3.88-.44-.83-.94-1.49-1.5-1.93-.5-.39-1.04-.6-1.62-.6-.36,0-.77.07-1.2.22-.47.15-.99.39-1.55.72-.59.34-1.23.77-1.91,1.3-.4.31-.82.65-1.25,1.03-.13.1-.78.84-.78,1.99v13.34c.73.67,1.4,1.25,2.03,1.75.66.52,1.29.97,1.88,1.33.54.33,1.01.57,1.42.73.37.15.69.22.95.22.61,0,1.19-.23,1.75-.65.61-.46,1.16-1.16,1.66-2.04Z"/>
  <g>
    <path class="cls-2" d="M113.61,32.29h0c-.51-4.03-9.18-.38-13.66-1.86-.41-.14-1.33-.51-2.07-.28-7.17,2.25-11.78,11.88-7.36,19.69h0c-1.03-9.31,10.11-15.52,17.83-14.25,0,0,1.5,12.09-10.38,14.82,17.65-1.31,15.69-17.56,15.62-18.12Z"/>
    <path class="cls-2" d="M105.9,19.73c-2.71-.68-4.25,1.11-4.35,1.22-.81,1.29-1.2,2.82-1.24,4.15-.07,2.76,2.47,3.8,4.88,2.9,2.41-.89,3.09-2.72,2.88-4.43-.05-.45-.04-.93,0-1.39v-.02c.15-1.06-.42-2-2.17-2.43Z"/>
    <path class="cls-2" d="M117.45,24.8c.6-.82.98-1.65,1.32-2.53.6-1.84,1.04-3.46-.75-4.73-2.71-1.92-4.81-.6-5.35-.19-1.86,1.5-3.34,3.43-3.52,5.07-.21,1.9,1.38,3.56,2.64,4.04,1.25.48,3.85.77,5.65-1.66Z"/>
    <path class="cls-2" d="M125.34,24.48c-2.13-2.13-4.37-.93-4.37-.93h0c-1.3.7-2.53,1.32-3.64,2.5-1.6,1.7-1.8,4.04-.35,5.66,1.24,1.4,3.44,1.78,5.29.78.83-.44,2.21-1.63,3.28-3.13.78-1.26,1.21-3.46-.21-4.88Z"/>
    <path class="cls-2" d="M123.06,40.48c.83-.78,1.52-1.91,1.28-3.6-.36-2.55-2.59-2.55-3.13-2.52-.04,0-.07,0-.11.01h-.01c-.42.04-.89.06-1.4.05-1.61-.05-3.53,1-4.16,2.81-.65,1.86.14,4.96,2.65,5.14,1.08.08,2.18-.21,3.2-.73.23-.13.52-.3.82-.5.3-.2.58-.43.86-.67Z"/>
  </g>
</svg>